<svg xmlns="http://www.w3.org/2000/svg" viewBox="0 0 100 100">
  <style>
    .background { fill: #e4b425; }
    .letter { fill: #1a365d; }
    @media (prefers-color-scheme: dark) {
      .background { fill: #ffc107; }
      .letter { fill: #1a365d; }
    }
  </style>
  <circle class="background" cx="50" cy="50" r="50"/>
  <!-- C letter -->
  <path class="letter" d="M25,35 C25,35 25,35 25,35 C30,30 37,28 43,30 C48,32 50,35 50,35 L45,43 C45,43 42,38 36,38 C30,38 27,43 27,50 C27,57 30,62 36,62 C42,62 44,58 44,58 L49,65 C49,65 45,70 36,70 C27,70 20,62 20,50 C20,42 22,38 25,35 Z"/>
  <!-- I letter -->
  <path class="letter" d="M55,30 L75,30 L75,38 L70,38 L70,62 L75,62 L75,70 L55,70 L55,62 L60,62 L60,38 L55,38 Z"/>
</svg>
