<svg xmlns="http://www.w3.org/2000/svg" viewBox="0 0 100 100" version="4.0">
  <style>
    .background { fill: #e4b425; }
  </style>
  <circle class="background" cx="50" cy="50" r="50"/>
  <!-- C letter - explicit path -->
  <path d="M30 35 C 30 35, 30 35, 30 35 C 35 30, 42 28, 48 30 C 53 32, 55 35, 55 35 L 50 43 C 50 43, 47 38, 41 38 C 35 38, 32 43, 32 50 C 32 57, 35 62, 41 62 C 47 62, 49 58, 49 58 L 54 65 C 54 65, 50 70, 41 70 C 32 70, 25 62, 25 50 C 25 42, 27 38, 30 35 Z" fill="#1a365d" />
  <!-- I letter - explicit path -->
  <path d="M60 30 L 80 30 L 80 38 L 75 38 L 75 62 L 80 62 L 80 70 L 60 70 L 60 62 L 65 62 L 65 38 L 60 38 Z" fill="#1a365d" />
</svg>
