<svg xmlns="http://www.w3.org/2000/svg" viewBox="0 0 100 100">
  <!-- Removed inline styles for CSP compliance -->
  <circle fill="#e4b425" cx="50" cy="50" r="50"/>
  <!-- C letter - custom path that's clearly a C -->
  <path fill="#1a365d" d="M25 50 A20 20 0 1 1 43 65 L40 58 A12 12 0 1 0 29 50 A12 12 0 0 0 40 42 L43 35 A20 20 0 0 0 25 50Z"/>
  <!-- I letter - custom path that's clearly an I -->
  <path fill="#1a365d" d="M55 35 L75 35 L75 43 L70 43 L70 57 L75 57 L75 65 L55 65 L55 57 L60 57 L60 43 L55 43 Z"/>
</svg>
