<svg xmlns="http://www.w3.org/2000/svg" viewBox="0 0 100 100">
  <style>
    .background { fill: #e4b425; }
    .letters { fill: #1a365d; }
    @media (prefers-color-scheme: dark) {
      .background { fill: #ffc107; }
      .letters { fill: #1a365d; }
    }
  </style>
  <circle class="background" cx="50" cy="50" r="50"/>
  <path class="letters" d="M30 35c0-1.1 0.9-2 2-2h12c5.5 0 10 4.5 10 10v0c0 5.5-4.5 10-10 10H35v12c0 1.1-0.9 2-2 2h-1c-1.1 0-2-0.9-2-2V35zm7 0v13h7c3.3 0 6-2.7 6-6v0c0-3.3-2.7-6-6-6H37z"/>
  <path class="letters" d="M56 35c0-1.1 0.9-2 2-2h1c1.1 0 2 0.9 2 2v30c0 1.1-0.9 2-2 2h-1c-1.1 0-2-0.9-2-2V35z"/>
</svg>
