<svg xmlns="http://www.w3.org/2000/svg" viewBox="0 0 100 100"><rect width="100" height="100" rx="20" fill="#D4AF37"/><path d="M35 28C28.925 28 24 32.925 24 39V61C24 67.075 28.925 72 35 72H50C56.075 72 61 67.075 61 61V55H49V61C49 60.448 48.552 60 48 60H37C36.448 60 36 59.552 36 59V41C36 40.448 36.448 40 37 40H48C48.552 40 49 40.448 49 40V46H61V40C61 33.925 56.075 29 50 29H35C34.667 29 35 28 35 28Z" fill="#152C5B"/><rect x="65" y="28" width="12" height="44" rx="2" fill="#152C5B"/><rect width="100" height="100" rx="20" fill="rgba(0,0,0,0.05)"/></svg>
