<svg xmlns="http://www.w3.org/2000/svg" width="512" height="512" viewBox="0 0 512 512">
  <rect width="512" height="512" rx="64" fill="#0A2342" />
  <g transform="translate(106, 40)">
    <!-- Capitol Dome -->
    <path d="M150 50 L150 20 Q150 10 160 10 L160 10 Q170 10 170 20 L170 50 Z" fill="#D4AF37" />
    <path d="M160 10 Q170 10 175 15 A80 80 0 0 1 300 100 L300 100 L300 432 L20 432 L20 100 L20 100 A80 80 0 0 1 145 15 Q150 10 160 10 Z" 
      fill="none" 
      stroke="#D4AF37" 
      stroke-width="16" 
      stroke-linejoin="round" />
    
    <!-- Columns -->
    <line x1="60" y1="100" x2="60" y2="320" stroke="#D4AF37" stroke-width="12" stroke-linecap="round" />
    <line x1="110" y1="100" x2="110" y2="320" stroke="#D4AF37" stroke-width="12" stroke-linecap="round" />
    <line x1="160" y1="100" x2="160" y2="320" stroke="#D4AF37" stroke-width="12" stroke-linecap="round" />
    <line x1="210" y1="100" x2="210" y2="320" stroke="#D4AF37" stroke-width="12" stroke-linecap="round" />
    <line x1="260" y1="100" x2="260" y2="320" stroke="#D4AF37" stroke-width="12" stroke-linecap="round" />
    
    <!-- Base -->
    <rect x="20" y="320" width="280" height="30" fill="#D4AF37" />
    <rect x="30" y="350" width="260" height="20" fill="#D4AF37" />
    <rect x="40" y="370" width="240" height="62" fill="#D4AF37" />
  </g>
</svg>
